<svg width="396" height="121" viewBox="0 0 396 121" fill="none" xmlns="http://www.w3.org/2000/svg">
<path d="M171.614 43.2455C178.068 43.2455 182.235 42.1825 184.116 40.0567C185.998 37.9308 186.938 34.7726 186.938 30.5821C186.938 26.9421 185.921 23.8681 183.887 21.3599C181.853 18.8517 177.471 17.5976 170.742 17.5976L171.614 43.2455ZM163.355 50.0818L165.236 13.2847C167.377 13.2541 170.283 13.2388 173.954 13.2388C183.497 13.2388 189.737 14.9823 192.673 18.4693C195.61 21.9563 197.078 26.1927 197.078 31.1786C197.078 36.9597 195.319 41.5555 191.802 44.966C188.284 48.3766 181.738 50.0818 172.164 50.0818H163.355Z" fill="#FFC72C"/>
<path d="M208.503 50.2653L202.676 50.4947L201.208 12.4128L210.843 13.1928L208.503 50.2653Z" fill="#FFC72C"/>
<path d="M254.614 37.235L253.054 43.5208L243.419 40.4008L256.036 12H261.772L265.259 22.5069L273.884 48.3384L267.553 50.4948L264.112 38.5656L254.614 37.235ZM261.909 32.6468L258.927 21.4517L255.623 32.6927L261.909 32.6468ZM232.315 12.5047C237.515 12.5047 241.194 13.3459 243.35 15.0282C245.506 16.7105 246.998 19.3564 247.824 22.9658L242.272 24.6634C241.935 22.9811 241.201 21.7499 240.07 20.9699C238.938 20.1899 237.255 19.7999 235.023 19.7999C231.688 19.7999 229.142 20.7864 227.383 22.7593C225.624 24.7322 224.745 28.0433 224.745 32.6927C224.745 37.0973 225.624 40.3244 227.383 42.3737C229.142 44.4231 232.53 45.4478 237.546 45.4478C246.264 45.4478 254.14 45.1419 261.175 44.5302L261.955 50.6783C255.776 50.9536 248.114 51.0913 238.968 51.0913C228.752 51.0913 222.199 49.4548 219.308 46.1819C216.417 42.909 214.972 38.2291 214.972 32.1421C214.972 25.2904 216.364 20.3046 219.147 17.1847C221.931 14.0647 226.32 12.5047 232.315 12.5047V12.5047Z" fill="#FFC72C"/>
<path d="M285.584 32.6469C285.584 32.6469 284.016 32.2875 280.881 31.5687C277.746 30.8499 276.178 28.1352 276.178 23.4247C276.178 20.3965 277.172 17.8959 279.161 15.923C281.149 13.9501 284.957 12.9636 290.585 12.9636C295.51 12.9636 299.593 13.4071 302.836 14.2942L301.505 22.5529C297.223 21.2682 293.766 20.6259 291.136 20.6259C288.597 20.6259 286.907 20.97 286.066 21.6582C285.225 22.3465 284.804 23.3482 284.804 24.6635C284.804 27.5999 287.939 29.7793 294.21 31.2016C300.48 32.624 303.615 35.6904 303.615 40.4009C303.615 43.4291 302.621 45.8532 300.633 47.6732C298.645 49.4932 294.837 50.4031 289.209 50.4031C284.284 50.4031 280.201 49.9596 276.958 49.0726L278.289 40.8139C282.571 42.0986 286.027 42.7409 288.658 42.7409C291.197 42.7409 292.887 42.3968 293.728 41.7086C294.569 41.0203 294.99 40.0186 294.99 38.7033C294.99 36.1033 291.854 34.0845 285.584 32.6469V32.6469Z" fill="#FFC72C"/>
<path d="M171.259 99.3277C177.713 99.3277 181.88 98.2648 183.762 96.1389C185.643 94.0131 186.583 90.8549 186.583 86.6644C186.583 83.0244 185.566 79.9503 183.532 77.4421C181.498 74.9339 177.116 73.6798 170.387 73.6798L171.259 99.3277ZM163 106.164L164.881 69.3669C167.022 69.3364 169.928 69.321 173.599 69.321C183.142 69.321 189.382 71.0646 192.318 74.5516C195.255 78.0386 196.723 82.275 196.723 87.2608C196.723 93.0419 194.964 97.6378 191.447 101.048C187.929 104.459 181.383 106.164 171.809 106.164H163Z" fill="#FFC72C"/>
<path d="M209.845 98.7314L207.781 107.587L199.017 104.788L214.387 69H220.123L231.547 105.43L225.904 106.348L223.977 98.6855L209.845 98.7314ZM220.719 92.3997L217.691 77.7175L213.424 92.1244L220.719 92.3997Z" fill="#FFC72C"/>
<path d="M265.628 100.468L274.621 70.5069L280.952 72.7093L268.702 108.038H260.306L247 72.6175L258.654 70.094L265.628 100.468Z" fill="#FF7F32"/>
<path d="M301.553 108.313C295.283 108.313 290.664 106.585 287.697 103.129C284.73 99.6724 283.247 95.2372 283.247 89.8231C283.247 84.4397 284.807 80.0197 287.927 76.5633C291.046 73.1069 295.589 71.3787 301.553 71.3787C307.824 71.3787 312.443 73.1069 315.41 76.5633C318.377 80.0197 319.86 84.4397 319.86 89.8231C319.86 95.2372 318.377 99.6724 315.41 103.129C312.443 106.585 307.824 108.313 301.553 108.313H301.553ZM299.764 98.8618C303.251 98.8618 305.905 97.9289 307.725 96.063C309.544 94.1972 310.454 91.5361 310.454 88.0796C310.454 84.6232 309.544 81.9621 307.725 80.0962C305.905 78.2303 303.251 77.2974 299.764 77.2974C296.277 77.2974 293.624 78.2303 291.804 80.0962C289.984 81.9621 289.074 84.6232 289.074 88.0796C289.074 91.5361 289.984 94.1972 291.804 96.063C293.624 97.9289 296.277 98.8618 299.764 98.8618V98.8618Z" fill="#FF7F32"/>
<path d="M340.782 100.468L349.775 70.5069L356.107 72.7093L343.856 108.038H335.46L322.154 72.6175L333.808 70.094L340.782 100.468Z" fill="#FF7F32"/>
<path d="M376.708 108.313C370.437 108.313 365.818 106.585 362.851 103.129C359.884 99.6724 358.401 95.2372 358.401 89.8231C358.401 84.4397 359.961 80.0197 363.081 76.5633C366.201 73.1069 370.743 71.3787 376.708 71.3787C382.978 71.3787 387.597 73.1069 390.564 76.5633C393.531 80.0197 395.015 84.4397 395.015 89.8231C395.015 95.2372 393.531 99.6724 390.564 103.129C387.597 106.585 382.978 108.313 376.708 108.313V108.313ZM374.918 98.8618C378.405 98.8618 381.059 97.9289 382.879 96.063C384.699 94.1972 385.609 91.5361 385.609 88.0796C385.609 84.6232 384.699 81.9621 382.879 80.0962C381.059 78.2303 378.405 77.2974 374.918 77.2974C371.431 77.2974 368.778 78.2303 366.958 80.0962C365.138 81.9621 364.228 84.6232 364.228 88.0796C364.228 91.5361 365.138 94.1972 366.958 96.063C368.778 97.9289 371.431 98.8618 374.918 98.8618ZM372.9 68.8093L371.477 65.047L382.764 60L384.737 66.6528L372.9 68.8093Z" fill="#FF7F32"/>
<path fill-rule="evenodd" clip-rule="evenodd" d="M85.0518 0C80.4568 1.657 76.1798 4.05799 73.7088 7.08799C73.8348 6.83699 73.5708 6.39099 73.3708 6.05299C73.3128 5.95399 73.2598 5.86499 73.2228 5.79299C71.5148 2.50699 65.8048 0.955 58.7568 0H85.0518Z" fill="#FFC72C"/>
<path fill-rule="evenodd" clip-rule="evenodd" d="M20.932 107.138C18.644 108.386 16.557 115.576 17.372 120.09H7.45C3.33601 120.09 0 116.754 0 112.64V7.44999C0 3.335 3.33601 0 7.45 0H23.555C22.254 5.87999 20.653 15.122 23.684 17.287C25.154 18.267 28.938 16.755 32.307 15.409C34.502 14.532 36.5209 13.725 37.6069 13.725C38.4159 13.725 38.74 14.049 38.416 15.021C32.401 36.3549 33.916 58.3439 35.104 75.6029C35.963 88.0739 36.652 98.0759 34.207 103.577C32.453 107.497 28.792 107.144 25.57 106.833C23.738 106.656 22.047 106.492 20.932 107.138V107.138Z" fill="#FF7F32"/>
<path fill-rule="evenodd" clip-rule="evenodd" d="M99.8687 120.09C99.9987 120.036 100.129 119.982 100.26 119.928C119.849 112.157 135.553 90.6249 131.02 42.2189C128.634 17.883 120.622 5.06199 110.352 0H141.548C145.662 0 148.998 3.335 148.998 7.44999V112.64C148.998 116.754 145.662 120.09 141.548 120.09H99.8687Z" fill="#FFC72C"/>
<path fill-rule="evenodd" clip-rule="evenodd" d="M88.9267 22.3059C82.7747 22.3059 76.2987 25.2199 72.2517 29.2669C61.8488 39.8229 64.6018 74.9528 65.6188 87.9428C65.6778 88.6988 65.7318 89.3798 65.7758 89.9768C66.2618 95.1578 66.7478 100.501 67.3948 105.843C68.5278 106.491 69.9858 107.138 71.4428 107.786C74.6798 109.081 77.4328 109.729 79.8608 109.729C82.9368 109.729 85.8507 108.757 89.4127 106.653C106.735 96.4528 107.545 74.1119 107.059 56.4649C106.735 47.3989 106.574 36.3909 101.393 28.6199C98.3167 24.0869 93.6217 22.3059 88.9267 22.3059V22.3059Z" fill="#FFC72C"/>
</svg>
