<svg width="150" height="121" viewBox="0 0 150 121" fill="none" xmlns="http://www.w3.org/2000/svg">
<path fill-rule="evenodd" clip-rule="evenodd" d="M85.1978 0C80.6028 1.657 76.3258 4.05799 73.8548 7.08799C73.9808 6.83699 73.7168 6.39099 73.5168 6.05299C73.4588 5.95399 73.4058 5.86499 73.3688 5.79299C71.6608 2.50699 65.9508 0.955 58.9028 0H85.1978Z" fill="#FFC72C"/>
<path fill-rule="evenodd" clip-rule="evenodd" d="M21.078 107.138C18.79 108.386 16.703 115.576 17.518 120.09H7.59599C3.482 120.09 0.145996 116.754 0.145996 112.64V7.44999C0.145996 3.335 3.482 0 7.59599 0H23.701C22.4 5.87999 20.799 15.122 23.83 17.287C25.3 18.267 29.084 16.755 32.453 15.409C34.648 14.532 36.6669 13.725 37.7529 13.725C38.5619 13.725 38.886 14.049 38.562 15.021C32.547 36.3549 34.062 58.3439 35.25 75.6029C36.109 88.0739 36.798 98.0759 34.353 103.577C32.5989 107.497 28.938 107.144 25.716 106.833C23.884 106.656 22.193 106.492 21.078 107.138V107.138Z" fill="#FF7F32"/>
<path fill-rule="evenodd" clip-rule="evenodd" d="M100.015 120.09C100.145 120.036 100.275 119.982 100.406 119.928C119.995 112.157 135.699 90.6249 131.166 42.2189C128.78 17.883 120.768 5.06199 110.498 0H141.694C145.808 0 149.144 3.335 149.144 7.44999V112.64C149.144 116.754 145.808 120.09 141.694 120.09H100.015Z" fill="#FFC72C"/>
<path fill-rule="evenodd" clip-rule="evenodd" d="M89.0727 22.3059C82.9207 22.3059 76.4447 25.2199 72.3977 29.2669C61.9948 39.8229 64.7477 74.9528 65.7647 87.9428C65.8237 88.6988 65.8778 89.3798 65.9218 89.9768C66.4078 95.1578 66.8937 100.501 67.5407 105.843C68.6737 106.491 70.1318 107.138 71.5888 107.786C74.8258 109.081 77.5788 109.729 80.0068 109.729C83.0828 109.729 85.9967 108.757 89.5587 106.653C106.881 96.4528 107.691 74.1119 107.205 56.4649C106.881 47.3989 106.72 36.3909 101.539 28.6199C98.4627 24.0869 93.7677 22.3059 89.0727 22.3059V22.3059Z" fill="#FFC72C"/>
</svg>
